<?xml version="1.0" encoding="UTF-8" standalone="no"?>
<svg
   viewBox="0 0 100 100"
   version="1.1"
   id="svg2"
   sodipodi:docname="vertical_gauge_0.svg"
   inkscape:version="1.4 (86a8ad7, 2024-10-11)"
   xmlns:inkscape="http://www.inkscape.org/namespaces/inkscape"
   xmlns:sodipodi="http://sodipodi.sourceforge.net/DTD/sodipodi-0.dtd"
   xmlns="http://www.w3.org/2000/svg"
   xmlns:svg="http://www.w3.org/2000/svg">
  <defs
     id="defs2" />
  <sodipodi:namedview
     id="namedview2"
     pagecolor="#ffffff"
     bordercolor="#000000"
     borderopacity="0.25"
     inkscape:showpageshadow="2"
     inkscape:pageopacity="0.0"
     inkscape:pagecheckerboard="0"
     inkscape:deskcolor="#d1d1d1"
     inkscape:zoom="18.15"
     inkscape:cx="50"
     inkscape:cy="50"
     inkscape:window-width="3840"
     inkscape:window-height="2054"
     inkscape:window-x="-11"
     inkscape:window-y="-11"
     inkscape:window-maximized="1"
     inkscape:current-layer="svg2" />
  <rect
     x="60"
     y="5"
     width="30"
     height="90"
     rx="15"
     ry="7.5"
     fill="#e0e0e0"
     id="rect1" />
  <rect
     x="60"
     y="5"
     width="30"
     height="90"
     rx="15"
     ry="7.5"
     fill="none"
     stroke="#00c853"
     stroke-width="2"
     id="rect2" />
  <path
     d="m 9.1210938,45.363625 q 0,-7.617188 1.5527342,-12.246094 1.582031,-4.658203 4.658203,-7.177735 3.105469,-2.519531 7.792969,-2.519531 3.457031,0 6.064453,1.40625 2.607422,1.376953 4.306641,4.013672 1.699218,2.607422 2.666015,6.386719 0.966797,3.75 0.966797,10.136719 0,7.558593 -1.552734,12.216796 -1.552735,4.628907 -4.658203,7.177735 -3.076172,2.519531 -7.792969,2.519531 -6.210938,0 -9.755859,-4.453125 Q 9.1210938,57.463234 9.1210938,45.363625 Z m 5.4199222,0 q 0,10.576171 2.460937,14.091796 2.490234,3.486329 6.123047,3.486329 3.632812,0 6.09375,-3.515625 2.490234,-3.515625 2.490234,-14.0625 0,-10.605469 -2.490234,-14.091797 -2.460938,-3.486328 -6.152344,-3.486328 -3.632812,0 -5.800781,3.076171 -2.724609,3.925782 -2.724609,14.501954 z"
     id="text2"
     style="font-size:60px;font-family:Arial, sans-serif;dominant-baseline:central;text-anchor:end;fill:#00c853"
     aria-label="0" />
</svg>
