<?xml version="1.0" encoding="UTF-8" standalone="no"?>
<svg
   viewBox="0 0 100 100"
   version="1.1"
   id="svg3"
   sodipodi:docname="vertical_gauge_3.svg"
   inkscape:version="1.4 (86a8ad7, 2024-10-11)"
   xmlns:inkscape="http://www.inkscape.org/namespaces/inkscape"
   xmlns:sodipodi="http://sodipodi.sourceforge.net/DTD/sodipodi-0.dtd"
   xmlns="http://www.w3.org/2000/svg"
   xmlns:svg="http://www.w3.org/2000/svg">
  <defs
     id="defs3" />
  <sodipodi:namedview
     id="namedview3"
     pagecolor="#ffffff"
     bordercolor="#000000"
     borderopacity="0.25"
     inkscape:showpageshadow="2"
     inkscape:pageopacity="0.0"
     inkscape:pagecheckerboard="0"
     inkscape:deskcolor="#d1d1d1"
     inkscape:zoom="18.15"
     inkscape:cx="50"
     inkscape:cy="50"
     inkscape:window-width="3840"
     inkscape:window-height="2054"
     inkscape:window-x="-11"
     inkscape:window-y="-11"
     inkscape:window-maximized="1"
     inkscape:current-layer="svg3" />
  <rect
     x="60"
     y="5"
     width="30"
     height="90"
     rx="15"
     ry="7.5"
     fill="#e0e0e0"
     id="rect1" />
  <rect
     x="60"
     y="50"
     width="30"
     height="45"
     rx="15"
     ry="7.5"
     fill="#ffa000"
     id="rect2" />
  <rect
     x="60"
     y="5"
     width="30"
     height="90"
     rx="15"
     ry="7.5"
     fill="none"
     stroke="#ffa000"
     stroke-width="2"
     id="rect3" />
  <path
     d="M 9.1503906,55.207375 14.423828,54.50425 q 0.908203,4.482421 3.076172,6.474609 2.197266,1.962891 5.332031,1.962891 3.720703,0 6.269531,-2.578125 2.578125,-2.578125 2.578125,-6.386719 0,-3.632813 -2.373046,-5.976563 -2.373047,-2.373047 -6.035157,-2.373047 -1.49414,0 -3.720703,0.585938 l 0.585938,-4.628906 q 0.527343,0.05859 0.849609,0.05859 3.369141,0 6.064453,-1.757812 2.695313,-1.757813 2.695313,-5.419922 0,-2.900391 -1.962891,-4.804687 -1.962891,-1.904297 -5.068359,-1.904297 -3.076172,0 -5.126953,1.933593 -2.050782,1.933594 -2.636719,5.800782 l -5.2734376,-0.9375 q 0.9667966,-5.302735 4.3945316,-8.203125 3.427734,-2.929688 8.52539,-2.929688 3.515625,0 6.47461,1.523438 2.958984,1.49414 4.511718,4.101562 1.582032,2.607422 1.582032,5.53711 0,2.783203 -1.494141,5.068359 -1.494141,2.285156 -4.423828,3.632812 3.808594,0.878907 5.917969,3.66211 2.109375,2.753906 2.109375,6.914062 0,5.625 -4.101563,9.550782 -4.101562,3.896484 -10.371094,3.896484 -5.654297,0 -9.404296,-3.369141 -3.7207036,-3.36914 -4.2480474,-8.730468 z"
     id="text3"
     style="font-size:60px;font-family:Arial, sans-serif;dominant-baseline:central;text-anchor:end;fill:#ffa000"
     aria-label="3" />
</svg>
