<?xml version="1.0" encoding="UTF-8" standalone="no"?>
<svg
   viewBox="0 0 100 100"
   version="1.1"
   id="svg3"
   sodipodi:docname="vertical_gauge_2.svg"
   inkscape:version="1.4 (86a8ad7, 2024-10-11)"
   xmlns:inkscape="http://www.inkscape.org/namespaces/inkscape"
   xmlns:sodipodi="http://sodipodi.sourceforge.net/DTD/sodipodi-0.dtd"
   xmlns="http://www.w3.org/2000/svg"
   xmlns:svg="http://www.w3.org/2000/svg">
  <defs
     id="defs3" />
  <sodipodi:namedview
     id="namedview3"
     pagecolor="#ffffff"
     bordercolor="#000000"
     borderopacity="0.25"
     inkscape:showpageshadow="2"
     inkscape:pageopacity="0.0"
     inkscape:pagecheckerboard="0"
     inkscape:deskcolor="#d1d1d1"
     inkscape:zoom="18.15"
     inkscape:cx="50"
     inkscape:cy="50"
     inkscape:window-width="3840"
     inkscape:window-height="2054"
     inkscape:window-x="-11"
     inkscape:window-y="-11"
     inkscape:window-maximized="1"
     inkscape:current-layer="svg3" />
  <rect
     x="60"
     y="5"
     width="30"
     height="90"
     rx="15"
     ry="7.5"
     fill="#e0e0e0"
     id="rect1" />
  <rect
     x="60"
     y="65"
     width="30"
     height="30"
     rx="15"
     ry="7.5"
     fill="#7cb342"
     id="rect2" />
  <rect
     x="60"
     y="5"
     width="30"
     height="90"
     rx="15"
     ry="7.5"
     fill="none"
     stroke="#7cb342"
     stroke-width="2"
     id="rect3" />
  <path
     d="m 36.835937,61.476906 v 5.068359 H 8.4472656 Q 8.3886719,64.640968 9.0625,62.883156 q 1.083984,-2.900391 3.457031,-5.712891 2.402344,-2.8125 6.914063,-6.503906 7.001953,-5.742188 9.46289,-9.082031 2.460938,-3.369141 2.460938,-6.357422 0,-3.134766 -2.25586,-5.273438 Q 26.875,27.7855 23.271484,27.7855 q -3.808593,0 -6.09375,2.285156 -2.285156,2.285156 -2.314453,6.328125 L 9.4433594,35.84214 Q 10,29.777687 13.632813,26.613625 q 3.632812,-3.19336 9.755859,-3.19336 6.18164,0 9.785156,3.427735 3.603516,3.427734 3.603516,8.496093 0,2.578125 -1.054688,5.06836 -1.054687,2.490234 -3.515625,5.24414 -2.43164,2.753907 -8.115234,7.558594 -4.746094,3.984375 -6.09375,5.419922 -1.347656,1.40625 -2.226563,2.841797 z"
     id="text3"
     style="font-size:60px;font-family:Arial, sans-serif;dominant-baseline:central;text-anchor:end;fill:#7cb342"
     aria-label="2" />
</svg>
