<?xml version="1.0" encoding="UTF-8" standalone="no"?>
<svg
   viewBox="0 0 100 100"
   version="1.1"
   id="svg1"
   sodipodi:docname="vertical_gauge_6.svg"
   inkscape:version="1.4 (86a8ad7, 2024-10-11)"
   xmlns:inkscape="http://www.inkscape.org/namespaces/inkscape"
   xmlns:sodipodi="http://sodipodi.sourceforge.net/DTD/sodipodi-0.dtd"
   xmlns="http://www.w3.org/2000/svg"
   xmlns:svg="http://www.w3.org/2000/svg">
  <defs
     id="defs1" />
  <sodipodi:namedview
     id="namedview1"
     pagecolor="#ffffff"
     bordercolor="#000000"
     borderopacity="0.25"
     inkscape:showpageshadow="2"
     inkscape:pageopacity="0.0"
     inkscape:pagecheckerboard="0"
     inkscape:deskcolor="#d1d1d1"
     inkscape:zoom="18.15"
     inkscape:cx="50"
     inkscape:cy="50"
     inkscape:window-width="3840"
     inkscape:window-height="2054"
     inkscape:window-x="-11"
     inkscape:window-y="-11"
     inkscape:window-maximized="1"
     inkscape:current-layer="svg1" />
  <rect
     x="60"
     y="5"
     width="30"
     height="90"
     rx="15"
     ry="7.5"
     fill="#d50000"
     id="rect1" />
  <path
     d="m 36.484375,34.113625 -5.244141,0.410156 q -0.703125,-3.105469 -1.992187,-4.511719 -2.138672,-2.255859 -5.273438,-2.255859 -2.519531,0 -4.423828,1.40625 -2.490234,1.816406 -3.925781,5.302734 -1.435547,3.486328 -1.494141,9.931641 1.904297,-2.900391 4.658203,-4.306641 2.753907,-1.40625 5.771485,-1.40625 5.273437,0 8.964844,3.896484 3.720703,3.867188 3.720703,10.019532 0,4.042968 -1.757813,7.529297 -1.728515,3.457031 -4.77539,5.302734 -3.046875,1.845703 -6.914063,1.845703 -6.591797,0 -10.751953,-4.833984 -4.1601562,-4.863282 -4.1601562,-15.996094 0,-12.451172 4.5996092,-18.105469 4.013672,-4.921875 10.810547,-4.921875 5.068359,0 8.291016,2.841797 3.251953,2.841797 3.896484,7.851563 z M 14.951172,52.62925 q 0,2.724609 1.142578,5.214843 1.171875,2.490235 3.251953,3.808594 2.080078,1.289063 4.365234,1.289063 3.339844,0 5.742188,-2.695313 2.402344,-2.695312 2.402344,-7.324219 0,-4.453125 -2.373047,-7.001953 -2.373047,-2.578125 -5.976563,-2.578125 -3.574218,0 -6.064453,2.578125 -2.490234,2.548828 -2.490234,6.708985 z"
     id="text1"
     style="font-size:60px;font-family:Arial, sans-serif;dominant-baseline:central;text-anchor:end;fill:#d50000"
     aria-label="6" />
</svg>
