<?xml version="1.0" encoding="UTF-8" standalone="no"?>
<svg
   viewBox="0 0 100 100"
   version="1.1"
   id="svg3"
   sodipodi:docname="vertical_gauge_5.svg"
   inkscape:version="1.4 (86a8ad7, 2024-10-11)"
   xmlns:inkscape="http://www.inkscape.org/namespaces/inkscape"
   xmlns:sodipodi="http://sodipodi.sourceforge.net/DTD/sodipodi-0.dtd"
   xmlns="http://www.w3.org/2000/svg"
   xmlns:svg="http://www.w3.org/2000/svg">
  <defs
     id="defs3" />
  <sodipodi:namedview
     id="namedview3"
     pagecolor="#ffffff"
     bordercolor="#000000"
     borderopacity="0.25"
     inkscape:showpageshadow="2"
     inkscape:pageopacity="0.0"
     inkscape:pagecheckerboard="0"
     inkscape:deskcolor="#d1d1d1"
     inkscape:zoom="18.15"
     inkscape:cx="50"
     inkscape:cy="50"
     inkscape:window-width="3840"
     inkscape:window-height="2054"
     inkscape:window-x="-11"
     inkscape:window-y="-11"
     inkscape:window-maximized="1"
     inkscape:current-layer="svg3" />
  <rect
     x="60"
     y="5"
     width="30"
     height="90"
     rx="15"
     ry="7.5"
     fill="#e0e0e0"
     id="rect1" />
  <rect
     x="60"
     y="20"
     width="30"
     height="75"
     rx="15"
     ry="7.5"
     fill="#e53935"
     id="rect2" />
  <rect
     x="60"
     y="5"
     width="30"
     height="90"
     rx="15"
     ry="7.5"
     fill="none"
     stroke="#e53935"
     stroke-width="2"
     id="rect3" />
  <path
     d="m 9.1210938,55.295265 5.5371092,-0.46875 q 0.615235,4.042969 2.841797,6.09375 2.255859,2.021485 5.419922,2.021485 3.808594,0 6.445312,-2.871094 2.636719,-2.871094 2.636719,-7.617188 0,-4.511718 -2.548828,-7.11914 -2.519531,-2.607422 -6.621094,-2.607422 -2.548828,0 -4.599609,1.171875 -2.050781,1.142578 -3.222656,2.988281 L 10.058594,46.242531 14.21875,24.181984 h 21.357422 v 5.039062 H 18.4375 l -2.314453,11.542969 q 3.867187,-2.695312 8.115234,-2.695312 5.625,0 9.492188,3.896484 3.867187,3.896484 3.867187,10.019531 0,5.830078 -3.398437,10.078125 -4.13086,5.214844 -11.279297,5.214844 -5.859375,0 -9.580078,-3.28125 -3.6914065,-3.28125 -4.2187502,-8.701172 z"
     id="text3"
     style="font-size:60px;font-family:Arial, sans-serif;dominant-baseline:central;text-anchor:end;fill:#e53935"
     aria-label="5" />
</svg>
